<?xml version="1.0" encoding="UTF-8" standalone="no"?>
<!DOCTYPE svg PUBLIC "-//W3C//DTD SVG 1.1//EN" "http://www.w3.org/Graphics/SVG/1.1/DTD/svg11.dtd">
<svg version="1.1" xmlns="http://www.w3.org/2000/svg" xmlns:xlink="http://www.w3.org/1999/xlink" preserveAspectRatio="xMidYMid meet" viewBox="0 0 640 640" width="640" height="640"><defs><path d="M262.06 174.85C262.06 202.44 239.66 224.85 212.06 224.85C184.47 224.85 162.06 202.44 162.06 174.85C162.06 147.25 184.47 124.85 212.06 124.85C239.66 124.85 262.06 147.25 262.06 174.85Z" id="antyukGkb"></path><path d="M239.69 163.51C239.69 179.89 227.31 193.2 212.06 193.2C196.81 193.2 184.43 179.89 184.43 163.51C184.43 147.12 196.81 133.81 212.06 133.81C227.31 133.81 239.69 147.12 239.69 163.51Z" id="k65IIKjg"></path><path d="M477.94 174.85C477.94 202.44 455.53 224.85 427.94 224.85C400.34 224.85 377.94 202.44 377.94 174.85C377.94 147.25 400.34 124.85 427.94 124.85C455.53 124.85 477.94 147.25 477.94 174.85Z" id="kaR116Jtp"></path><path d="M455.57 163.51C455.57 179.89 443.19 193.2 427.94 193.2C412.69 193.2 400.31 179.89 400.31 163.51C400.31 147.12 412.69 133.81 427.94 133.81C443.19 133.81 455.57 147.12 455.57 163.51Z" id="a1zst9YcH0"></path></defs><g><g><g><use xlink:href="#antyukGkb" opacity="1" fill="#ffffff" fill-opacity="1"></use></g><g><use xlink:href="#k65IIKjg" opacity="1" fill="#000000" fill-opacity="1"></use></g><g><use xlink:href="#kaR116Jtp" opacity="1" fill="#ffffff" fill-opacity="1"></use></g><g><use xlink:href="#a1zst9YcH0" opacity="1" fill="#000000" fill-opacity="1"></use></g></g></g></svg>