<?xml version="1.0" encoding="UTF-8" standalone="no"?>
<!DOCTYPE svg PUBLIC "-//W3C//DTD SVG 1.1//EN" "http://www.w3.org/Graphics/SVG/1.1/DTD/svg11.dtd">
<svg version="1.1" xmlns="http://www.w3.org/2000/svg" xmlns:xlink="http://www.w3.org/1999/xlink" preserveAspectRatio="xMidYMid meet" viewBox="0 0 640 640" width="100" height="100"><defs><path d="M637.89 323.66C637.89 499.81 494.5 642.82 317.89 642.82C141.27 642.82 -2.11 499.81 -2.11 323.66C-2.11 147.52 141.27 4.51 317.89 4.51C494.5 4.51 637.89 147.52 637.89 323.66Z" id="a69EMA8m4q"></path><path d="M608.45 249.86C608.45 360.32 518.53 450 407.78 450C297.03 450 207.11 360.32 207.11 249.86C207.11 139.4 297.03 49.72 407.78 49.72C518.53 49.72 608.45 139.4 608.45 249.86Z" id="a2p5IMrFP"></path><path d="M320 113.94C320 149.39 291.15 178.17 255.6 178.17C220.06 178.17 191.21 149.39 191.21 113.94C191.21 78.5 220.06 49.72 255.6 49.72C291.15 49.72 320 78.5 320 113.94Z" id="b90SriKQp"></path></defs><g><g><g><use xlink:href="#a69EMA8m4q" opacity="1" fill="#ff5959" fill-opacity="1"></use></g><g><use xlink:href="#a2p5IMrFP" opacity="1" fill="#ff8a8a" fill-opacity="1"></use></g><g><use xlink:href="#b90SriKQp" opacity="1" fill="#70d13b" fill-opacity="1"></use></g></g></g></svg>